<svg width="151" height="39" viewBox="0 0 151 39" fill="none" xmlns="http://www.w3.org/2000/svg">
<g clip-path="url(#clip0_215_2741)">
<path d="M39.3091 34.1798C39.2791 34.0298 39.3491 33.7998 39.4291 33.3298C39.8591 30.8998 41.0191 28.8198 42.6291 26.9798C44.8291 24.4698 47.5391 22.5798 50.3491 20.8398C53.4891 18.8998 56.6591 17.0198 59.7691 15.0298C61.5691 13.8798 63.1891 12.4898 64.4091 10.6998C64.4091 10.6998 65.999 8.13984 64.809 5.60984C64.799 5.59984 64.7891 5.58984 64.7791 5.58984C64.7791 5.70984 64.7591 5.83984 64.7091 5.98984C64.0291 7.86984 62.7691 9.31984 61.2491 10.5598C58.5491 12.7698 55.4191 14.2598 52.3391 15.8298C49.4291 17.3098 46.5091 18.7498 43.8491 20.6698C42.2391 21.8298 40.7791 23.1498 39.6691 24.8098C38.0991 27.1498 37.3491 30.8698 37.9391 32.5198C37.9391 32.5198 38.3691 33.5898 39.3091 34.1798Z" fill="#512345"/>
<path d="M35.6893 19.92C37.1993 15.5 39.8593 11.86 43.3293 8.79C46.3393 6.12 49.7393 4.13 53.6793 3.18C56.3693 2.53 59.0793 2.41 61.6893 3.48C62.4593 3.8 63.1693 4.28 63.8793 4.75C62.9593 3.94 61.9693 3.23 60.9193 2.61C59.4993 1.78 57.9793 1.14 56.3393 0.68C54.7093 0.23 53.0093 0 51.2493 0C49.4893 0 47.7893 0.23 46.1593 0.69C44.5293 1.15 42.9993 1.79 41.5793 2.62C40.1593 3.45 38.8593 4.45 37.6793 5.62C36.5093 6.79 35.4993 8.09 34.6593 9.5C33.8193 10.91 33.1793 12.44 32.7193 14.08C32.2593 15.72 32.0293 17.42 32.0293 19.18C32.0293 20.94 32.2593 22.64 32.7193 24.27C33.1793 25.9 33.8193 27.43 34.6593 28.85C35.0193 29.47 35.4293 30.06 35.8493 30.63C35.5293 30 35.2793 29.33 35.0993 28.63C34.3393 25.67 34.7193 22.77 35.6893 19.92Z" fill="#512345"/>
<path d="M67.8088 28.8398C68.6388 27.4198 69.2788 25.8898 69.7388 24.2598C70.1988 22.6298 70.4288 20.9298 70.4288 19.1698C70.4288 17.4098 70.1988 15.7098 69.7388 14.0698C69.2788 12.4298 68.6388 10.8998 67.8088 9.4898C67.3588 8.7298 66.8488 7.9998 66.2988 7.2998C66.6288 7.9998 66.9688 8.6998 67.1988 9.4298C68.0788 12.2698 67.7988 15.1098 66.9288 17.9098C65.4788 22.5898 62.7288 26.4298 59.0988 29.6498C56.0488 32.3598 52.5888 34.3698 48.5788 35.2898C45.7188 35.9498 42.8788 35.9798 40.1488 34.7198C40.0088 34.6598 39.8988 34.6098 39.7988 34.5598C40.3688 34.9898 40.9688 35.3898 41.5888 35.7598C43.0088 36.5998 44.5388 37.2398 46.1688 37.6998C47.7988 38.1598 49.4988 38.3898 51.2588 38.3898C53.0188 38.3898 54.7188 38.1598 56.3588 37.6998C57.9988 37.2398 59.5288 36.5998 60.9388 35.7598C62.3488 34.9198 63.6488 33.9198 64.8188 32.7398C65.9788 31.5698 66.9788 30.2698 67.8088 28.8398Z" fill="#512345"/>
<path d="M149.66 22.4096C149.36 22.6296 148.94 22.7996 148.74 22.8996C148.13 23.2396 147.5 23.5496 146.87 23.8496C144.79 24.8196 142.6 25.5496 140.35 26.0096C138.49 26.3896 136.6 26.5896 134.71 26.5496C132.74 26.5096 130.77 26.2896 128.82 26.0096C126.52 25.6696 124.23 25.1896 121.97 24.6596C116.25 23.3096 110.55 21.8496 104.8 20.5896C101.48 19.8596 98.0902 19.5996 94.6802 20.2396C92.4002 20.6696 90.3602 21.5796 88.5902 23.1296C88.5302 23.9296 88.4902 24.7196 88.4902 25.5296C88.4902 25.5496 88.4902 25.5696 88.4902 25.5896C88.6202 25.4496 88.8002 25.3296 89.0202 25.2196C91.9102 23.8696 94.9602 23.6496 98.0702 23.9696C103.6 24.5196 108.81 26.3696 114.05 28.0796C119 29.6896 123.92 31.3596 129.08 32.1896C132.72 32.7796 136.49 32.9096 140.05 31.8196C142.54 31.0496 144.87 29.7596 146.83 28.0296C147.72 27.2396 148.54 26.3496 149.13 25.3196C149.72 24.2896 150.08 23.0996 150.01 21.9096C150.02 22.0896 149.87 22.2696 149.66 22.4096Z" fill="#512345"/>
<path d="M85.4508 25.7499L78.2508 1.66992H70.0508L81.8508 37.7499H89.0708L100.921 1.66992H92.6708L85.4508 25.7499Z" fill="#512345"/>
<path d="M124.811 29.1495V30.5295V37.7495H132.031V27.2495V20.5395V16.1195C132.031 14.1195 131.651 12.2495 130.901 10.4995C130.151 8.74945 129.111 7.21945 127.811 5.90945C126.501 4.59945 124.971 3.56945 123.221 2.81945C121.471 2.06945 119.591 1.68945 117.601 1.68945C115.601 1.68945 113.731 2.06945 111.981 2.81945C110.231 3.56945 108.701 4.60945 107.401 5.90945C106.101 7.21945 105.071 8.74945 104.321 10.4995C103.571 12.2495 103.191 14.1295 103.191 16.1195V37.7495H110.381V30.5295V23.3395V16.1195C110.381 15.1295 110.571 14.1995 110.951 13.3195C111.331 12.4395 111.841 11.6695 112.501 11.0195C113.151 10.3695 113.921 9.84945 114.801 9.46945C115.681 9.08945 116.621 8.89945 117.601 8.89945C118.591 8.89945 119.521 9.08945 120.401 9.46945C121.281 9.84945 122.051 10.3595 122.701 11.0195C123.351 11.6695 123.871 12.4395 124.251 13.3195C124.631 14.1995 124.821 15.1395 124.821 16.1195V23.1595V29.1495H124.811Z" fill="#512345"/>
<path d="M7.4 17.1298C7.54 16.3898 7.77 15.6798 8.07 14.9798V14.9698C8.3 14.4598 8.55 13.9598 8.83 13.4898L8.84 13.4798C9.07 13.0998 9.33 12.7498 9.59 12.4098C9.63 12.3598 9.67 12.3198 9.71 12.2698C9.95 11.9498 10.22 11.6598 10.5 11.3798C10.53 11.3498 10.55 11.3298 10.57 11.2998C10.83 11.0498 11.1 10.7998 11.38 10.5798C11.52 10.4598 11.66 10.3498 11.8 10.2498C12.09 10.0298 12.4 9.83977 12.7 9.64977C13.14 9.38977 13.61 9.14976 14.09 8.93976C14.3 8.84976 14.51 8.74977 14.72 8.67977C14.98 8.57977 15.25 8.48977 15.53 8.40977C15.68 8.35977 15.85 8.32977 16 8.28977C16.84 8.08977 17.71 7.97977 18.62 7.97977C19.95 7.97977 21.24 8.20977 22.43 8.62977V8.61977C22.68 8.69977 22.94 8.78977 23.18 8.89977C24.61 9.50977 25.86 10.3798 26.91 11.5198V2.67977C26.33 2.39977 25.74 2.13977 25.12 1.90977C23.05 1.13977 20.89 0.759766 18.65 0.759766C16.95 0.759766 15.3 0.979766 13.71 1.42977C12.13 1.86977 10.64 2.49977 9.26 3.30977C7.88 4.12977 6.62 5.09977 5.48 6.24977C4.33 7.38977 3.36 8.64977 2.55 10.0398C1.74 11.4198 1.11 12.9098 0.67 14.4998C0.22 16.0898 0 17.7498 0 19.4498C0 21.1598 0.22 22.8098 0.67 24.3898C1.11 25.9798 1.74 27.4698 2.55 28.8398C3.36 30.2198 4.34 31.4798 5.48 32.6298C6.62 33.7698 7.88 34.7498 9.27 35.5598C10.65 36.3698 12.14 36.9998 13.72 37.4398C15.31 37.8798 16.96 38.1098 18.66 38.1098C20.9 38.1098 23.05 37.7198 25.13 36.9598C25.75 36.7298 26.35 36.4598 26.92 36.1798V27.3698C25.86 28.4998 24.62 29.3698 23.19 29.9898C22.92 30.0998 22.65 30.1998 22.38 30.2998C22.38 30.2898 22.39 30.2798 22.39 30.2698C21.22 30.6798 19.95 30.8998 18.63 30.8998C17.57 30.8998 16.55 30.7598 15.57 30.4898C15.56 30.4898 15.54 30.4798 15.53 30.4798C15.3 30.4198 15.09 30.3398 14.87 30.2698C14.73 30.2198 14.61 30.1698 14.48 30.1198C14.34 30.0698 14.22 30.0098 14.09 29.9598C12.73 29.3598 11.55 28.5498 10.53 27.5398C10.4 27.3998 10.28 27.2798 10.15 27.1398C10.02 26.9998 9.91 26.8598 9.79 26.7298C9.67 26.5898 9.56 26.4398 9.46 26.2998C9.35 26.1598 9.24 25.9998 9.14 25.8598C9.03 25.7098 8.93 25.5498 8.83 25.3998C8.64 25.0798 8.47 24.7598 8.3 24.4298C8.22 24.2598 8.14 24.0898 8.07 23.9198V23.9098C7.92 23.5698 7.79 23.2198 7.67 22.8498C7.46 22.1798 7.32 21.4898 7.24 20.7798C7.21 20.5498 7.19 20.2998 7.19 20.0598C7.18 19.8698 7.17 19.6698 7.17 19.4698C7.17 19.2498 7.18 19.0498 7.19 18.8398C7.21 18.2398 7.29 17.6798 7.4 17.1298Z" fill="#512345"/>
</g>
<defs>
<clipPath id="clip0_215_2741">
<rect width="150.01" height="38.38" fill="white"/>
</clipPath>
</defs>
</svg>
